{"title":"\nBAHAR DVD 121 (E 133-134)","magnet":"magnet:?xt=urn:btih:7c967f49fff177f46ff61af48da009de1c474c09&dn=BAHAR+DVD+121+%28E+133-134%29&tr=udp%3A%2F%2Ftracker.leechers-paradise.org%3A6969&tr=udp%3A%2F%2Fzer0day.ch%3A1337&tr=udp%3A%2F%2Fopen.demonii.com%3A1337&tr=udp%3A%2F%2Ftracker.coppersurfer.tk%3A6969&tr=udp%3A%2F%2Fexodus.desync.com%3A6969","uploader":"Carmen_L","categoryP":"video","categoryS":"tv_shows","size":"1201600353","seeders":"0","leechers":"0","description":"Video\r\nID                                       : 1\r\nFormat                                   : AVC\r\nFormat/Info                              : Advanced Video Codec\r\nFormat profile                           : <a href=\"/cdn-cgi/l/email-protection\" class=\"__cf_email__\" data-cfemail=\"1558747c7b5559213b24\">[email&#xA0;protected]</a>\r\nFormat settings, CABAC                   : Yes\r\nFormat settings, RefFrames               : 4 frames\r\nCodec ID                                 : avc1\r\nCodec ID/Info                            : Advanced Video Coding\r\nDuration                                 : 1 h 29 min\r\nBit rate                                 : 1 600 kb/s\r\nWidth                                    : 720 pixels\r\nHeight                                   : 480 pixels\r\nDisplay aspect ratio                     : 16:9\r\nOriginal display aspect ratio            : 16:9\r\nFrame rate mode                          : Constant\r\nFrame rate                               : 25.000 FPS\r\nColor space                              : YUV\r\nChroma subsampling                       : 4:2:0\r\nBit depth                                : 8 bits\r\nScan type                                : Progressive\r\nBits/(Pixel*Frame)                       : 0.185\r\nStream size                              : 1 019 MiB (89%)\r\n\r\n\r\nAudio\r\nID                                       : 2\r\nFormat                                   : AAC\r\nFormat/Info                              : Advanced Audio Codec\r\nFormat profile                           : LC\r\nCodec ID                                 : 40\r\nDuration                                 : 1 h 29 min\r\nDuration_LastFrame                       : -11 ms\r\nBit rate mode                            : Constant\r\nBit rate                                 : 192 kb/s\r\nChannel(s)                               : 2 channels\r\nChannel positions                        : Front: L R\r\nSampling rate                            : 48.0 kHz\r\nFrame rate                               : 46.875 FPS (1024 SPF)\r\nCompression mode                         : Lossy\r\nStream size                              : 123 MiB (11%)\r\nDefault                                  : Yes","last_updated":"2017-09-30T12:02:36.469Z","parsed":{"xt":"urn:btih:7c967f49fff177f46ff61af48da009de1c474c09","dn":"BAHAR DVD 121 (E 133-134)","tr":["udp://exodus.desync.com:6969","udp://open.demonii.com:1337","udp://tracker.coppersurfer.tk:6969","udp://tracker.leechers-paradise.org:6969","udp://zer0day.ch:1337"],"infoHash":"7c967f49fff177f46ff61af48da009de1c474c09","infoHashBuffer":{"type":"Buffer","data":[124,150,127,73,255,241,119,244,111,246,26,244,141,160,9,222,28,71,76,9]},"name":"BAHAR DVD 121 (E 133-134)","announce":["udp://exodus.desync.com:6969","udp://open.demonii.com:1337","udp://tracker.coppersurfer.tk:6969","udp://tracker.leechers-paradise.org:6969","udp://zer0day.ch:1337"],"urlList":[]}}